<svg width="120" height="40" viewBox="0 0 120 40" fill="none" xmlns="http://www.w3.org/2000/svg">
  <path d="M20 0C8.954 0 0 8.954 0 20C0 31.046 8.954 40 20 40C31.046 40 40 31.046 40 20C40 8.954 31.046 0 20 0Z" fill="#005BAA"/>
  <path d="M20 5C11.716 5 5 11.716 5 20C5 28.284 11.716 35 20 35C28.284 35 35 28.284 35 20C35 11.716 28.284 5 20 5Z" fill="white"/>
  <path d="M20 10C14.477 10 10 14.477 10 20C10 25.523 14.477 30 20 30C25.523 30 30 25.523 30 20C30 14.477 25.523 10 20 10Z" fill="#005BAA"/>
  <path d="M20 15C17.239 15 15 17.239 15 20C15 22.761 17.239 25 20 25C22.761 25 25 22.761 25 20C25 17.239 22.761 15 20 15Z" fill="white"/>
  <path d="M50 10H55L65 30H60L58 25H47L45 30H40L50 10ZM49 20H56L52.5 15L49 20Z" fill="#005BAA"/>
  <path d="M70 10H75V25H85V30H70V10Z" fill="#005BAA"/>
  <path d="M90 10H95V30H90V10Z" fill="#005BAA"/>
  <path d="M100 10H105V25H115V30H100V10Z" fill="#005BAA"/>
</svg>
